<svg version="1.1" id="Layer_1" xmlns="http://www.w3.org/2000/svg" xmlns:xlink="http://www.w3.org/1999/xlink" x="0px" y="0px"
	 width="100%" viewBox="0 0 855 205" enable-background="new 0 0 855 205" xml:space="preserve">
<path fill="#FFFFFF" opacity="1.000000" stroke="none" 
	d="
M0.999999,140.000000 
	C1.000000,93.695930 1.000000,47.391853 1.000000,1.000000 
	C185.354218,1.000000 369.708466,1.000000 554.453369,1.332440 
	C549.258606,7.905516 543.611938,14.093518 538.152832,20.442833 
	C537.322632,21.408428 537.054199,23.120615 537.047302,24.490107 
	C536.971802,39.477715 536.972656,54.465973 537.045837,69.453606 
	C537.052490,70.827011 537.302185,72.529305 538.119629,73.513824 
	C542.622498,78.937111 547.421143,84.114380 551.942749,89.522812 
	C554.138550,92.149277 556.591309,93.163544 560.064697,93.082344 
	C570.051208,92.848907 580.046753,93.000000 590.038757,93.000000 
	C593.301575,93.000000 596.564453,93.000000 599.673706,93.000000 
	C599.673706,85.298164 599.673706,78.231384 599.673706,71.000000 
	C590.369385,71.000000 581.390686,71.005127 572.411926,70.997742 
	C568.199524,70.994278 561.051025,64.062256 561.017639,59.822876 
	C560.955994,51.996300 560.947571,44.168423 561.017273,36.341984 
	C561.069275,30.500593 568.721863,23.000900 574.489502,23.000246 
	C582.916077,22.999290 591.342590,23.000000 600.000000,23.000000 
	C600.000000,15.276816 600.000000,8.138408 600.000000,1.000000 
	C610.354248,1.000000 620.708435,1.000000 631.452026,1.333970 
	C626.727295,7.446434 621.413635,13.066002 616.613525,19.094503 
	C615.052368,21.055182 614.157471,24.072479 614.112793,26.626715 
	C613.873657,40.284328 613.926941,53.949181 614.082886,67.609200 
	C614.104980,69.542778 614.772156,71.833061 615.945251,73.326065 
	C620.890381,79.619568 626.084290,85.722298 631.344849,91.757423 
	C632.054443,92.571533 633.657715,92.940826 634.850708,92.948250 
	C648.012207,93.030159 661.174744,93.046463 674.335632,92.925598 
	C675.621033,92.913795 677.251465,92.194641 678.118225,91.250069 
	C682.773132,86.177155 687.501038,81.128609 691.644409,75.648697 
	C693.450378,73.260132 694.779236,69.884117 694.852966,66.919968 
	C695.188293,53.433113 695.083496,39.932175 694.912720,26.439131 
	C694.886108,24.340866 694.217468,21.851120 692.956055,20.238165 
	C687.825745,13.678115 682.348999,7.389004 677.000000,1.000011 
	C687.354248,1.000000 697.708435,1.000000 708.531372,1.468657 
	C709.000000,32.197151 709.000000,62.456989 709.000000,93.000000 
	C725.175476,93.000000 740.809875,92.888168 756.440125,93.092995 
	C759.621338,93.134689 761.735840,92.120193 763.683960,89.844116 
	C768.270813,84.485237 773.044739,79.284317 777.547668,73.857468 
	C778.469849,72.746094 778.929199,70.928909 778.939453,69.432549 
	C779.039978,54.771255 779.130249,40.106655 778.866028,25.449451 
	C778.824158,23.127026 777.435913,20.492981 775.926025,18.595024 
	C771.140198,12.579203 766.001953,6.843831 761.000000,1.000005 
	C777.020874,1.000000 793.041809,1.000000 809.528870,1.365022 
	C806.119507,6.529325 802.084351,11.211031 798.429443,16.172831 
	C796.304382,19.057785 793.370178,22.336285 793.244263,25.533937 
	C792.682129,39.811081 792.929443,54.123634 793.082275,68.421272 
	C793.103210,70.385345 793.735840,72.742058 794.939026,74.223640 
	C799.582214,79.941170 804.438171,85.505203 809.527588,90.827370 
	C810.776123,92.133034 813.201721,92.883469 815.098572,92.907509 
	C828.730591,93.080315 842.365784,93.000000 856.000000,93.000000 
	C856.000000,104.020897 856.000000,115.041786 855.637146,126.528854 
	C851.064148,123.375275 846.940186,119.646927 842.594177,116.198448 
	C841.193298,115.086914 839.216797,114.121094 837.488525,114.095100 
	C825.503479,113.914818 813.514282,113.977943 801.526794,114.033134 
	C800.285889,114.038841 798.778259,114.135651 797.848511,114.813263 
	C787.905212,122.059647 778.838867,129.775574 781.911987,144.211151 
	C782.522400,147.078156 781.794617,150.206604 782.088013,153.174545 
	C782.232056,154.632111 782.983582,156.314499 784.011353,157.346085 
	C787.020508,160.366501 790.126770,163.355652 793.551147,165.872406 
	C795.606750,167.383163 798.304871,168.790634 800.754395,168.861847 
	C811.690430,169.179779 822.640991,169.000000 833.999084,169.000000 
	C833.999084,172.845490 834.688171,176.495773 833.773682,179.686523 
	C833.084229,182.092484 830.480469,185.534134 828.488464,185.704529 
	C820.451172,186.392059 812.320740,185.989532 803.816040,185.989532 
	C803.816040,182.357971 803.816040,179.278656 803.816040,176.310181 
	C796.325928,176.310181 789.260010,176.310181 782.000000,176.310181 
	C782.000000,179.764694 782.336548,182.956299 781.917053,186.045212 
	C781.358093,190.161118 783.716125,192.391724 786.320435,194.786835 
	C790.292053,198.439285 794.114319,202.254120 798.000000,206.000000 
	C789.645752,206.000000 781.291504,206.000000 772.468628,205.531357 
	C772.000000,197.799545 772.000000,190.536377 772.000000,183.000000 
	C762.659912,183.000000 753.864441,183.002121 745.069031,182.999344 
	C737.843933,182.997040 732.380249,176.473083 733.615356,168.837494 
	C746.281067,168.837494 759.018066,168.837494 771.703125,168.837494 
	C771.703125,162.357574 771.703125,156.293137 771.703125,149.884369 
	C758.652893,149.884369 745.895325,149.884369 733.156494,149.884369 
	C732.953613,142.942383 739.602051,136.002182 746.113220,136.000534 
	C754.693542,135.998337 763.273926,136.000000 771.657349,136.000000 
	C771.657349,128.261444 771.657349,121.195549 771.657349,114.000000 
	C758.838806,114.000000 746.341553,114.423996 733.895569,113.809601 
	C728.220581,113.529465 724.981384,116.152611 721.760498,119.765442 
	C719.911804,121.839127 718.287598,124.124069 716.346497,126.102089 
	C711.392090,131.150528 708.128357,136.379959 708.781128,144.219543 
	C709.662231,154.800842 709.399963,165.531189 708.854614,176.157867 
	C708.510071,182.871735 710.803040,187.591660 715.452820,192.200439 
	C719.526062,196.237839 722.525940,201.358093 726.000000,206.000000 
	C710.645752,206.000000 695.291565,206.000000 679.468628,205.531342 
	C679.000000,181.808868 679.000000,158.555054 679.000000,134.878387 
	C685.922241,134.878387 692.330383,134.878387 698.714539,134.878387 
	C698.714539,127.716507 698.714539,120.984451 698.714539,114.284607 
	C677.371399,114.284607 656.315002,114.284607 635.295837,114.284607 
	C635.295837,121.305122 635.295837,128.037857 635.295837,135.187943 
	C641.990906,135.187943 648.395264,135.187943 655.000000,135.187943 
	C655.000000,159.076065 655.000000,182.538040 655.000000,206.000000 
	C650.643127,206.000000 646.286194,206.000000 641.464661,205.595245 
	C640.801208,204.079605 640.772339,202.904190 640.378723,201.867294 
	C631.264465,177.858414 622.125732,153.858795 612.952209,129.872513 
	C610.998352,124.763664 610.243164,117.619698 606.492188,115.197708 
	C602.357544,112.528023 595.407715,114.211617 589.683350,114.023140 
	C589.209900,114.007553 588.730347,114.177498 587.943787,114.315674 
	C583.314636,126.533325 578.668030,138.862732 573.972778,151.173538 
	C566.999939,169.455948 559.992615,187.725174 553.000000,206.000000 
	C549.307068,206.000000 545.614197,206.000000 541.460632,205.531342 
	C541.000000,181.808868 541.000000,158.555069 541.000000,134.878387 
	C547.921448,134.878387 554.328369,134.878387 560.714478,134.878387 
	C560.714478,127.716507 560.714478,120.984444 560.714478,114.284607 
	C539.371338,114.284607 518.314941,114.284607 497.295837,114.284607 
	C497.295837,121.305153 497.295837,128.037903 497.295837,135.187958 
	C503.990204,135.187958 510.396271,135.187958 517.000000,135.187958 
	C517.000000,159.076065 517.000000,182.538025 517.000000,206.000000 
	C501.979095,206.000000 486.958221,206.000000 471.544159,205.670380 
	C473.270752,203.225937 475.069061,200.565216 477.567749,199.093918 
	C486.763611,193.679108 487.131714,185.417725 487.359314,175.889938 
	C487.573212,166.937592 484.725616,160.837677 478.124817,155.493744 
	C473.827271,152.014526 469.801697,149.233444 463.717743,149.848862 
	C457.123779,150.515839 450.405579,150.135483 443.751862,149.908783 
	C441.994843,149.848907 440.112488,148.931335 438.569397,147.960037 
	C433.451080,144.738312 435.032471,139.825974 435.276855,135.314880 
	C445.387054,135.314880 455.128815,135.314880 464.846527,135.314880 
	C464.986969,137.706573 465.108765,139.781342 465.218872,141.656723 
	C472.745972,141.656723 479.812958,141.656723 486.999756,141.656723 
	C486.999756,137.824661 487.077850,134.332397 486.949341,130.847778 
	C486.913574,129.877930 486.517517,128.681732 485.857147,128.014816 
	C482.481171,124.605507 478.951904,121.348480 475.501129,118.012497 
	C472.710846,115.315010 469.705841,113.704498 465.515106,113.901230 
	C458.037476,114.252281 450.455750,114.671890 443.055756,113.837471 
	C432.780029,112.678810 424.608093,115.234810 418.578125,123.852676 
	C417.949768,124.750702 416.590332,125.146431 415.990631,126.053314 
	C414.834839,127.801025 413.231384,129.709763 413.134827,131.618576 
	C412.790253,138.429108 412.808228,145.276398 413.117584,152.090286 
	C413.209686,154.118622 414.211761,156.584610 415.640228,157.997330 
	C426.830109,169.063995 426.893402,169.000000 442.661835,169.000000 
	C450.078186,169.000000 457.494568,169.000000 465.000000,169.000000 
	C465.000000,172.529663 464.766724,175.379913 465.051086,178.177536 
	C465.561737,183.201630 461.782867,185.425842 458.440186,185.752350 
	C450.752625,186.503265 442.941589,185.990372 434.774384,185.990372 
	C434.774384,182.315857 434.774384,179.235626 434.774384,176.332306 
	C427.281738,176.332306 420.214203,176.332306 413.583679,176.332306 
	C411.110168,186.369553 413.541748,194.030380 422.582520,199.308029 
	C424.900574,200.661209 426.221161,203.723099 428.000000,206.000000 
	C285.666656,206.000000 143.333328,206.000000 1.000000,206.000000 
	C1.000000,197.253876 1.000000,188.595596 1.329596,179.544144 
	C7.889648,185.387207 14.042276,191.704956 20.417122,197.789932 
	C21.671682,198.987442 23.773281,199.873077 25.502155,199.904099 
	C36.150082,200.095200 46.804813,200.094070 57.452827,199.905365 
	C59.184853,199.874680 61.289696,199.009171 62.547432,197.817398 
	C68.461533,192.213394 74.229431,186.445435 79.831512,180.529556 
	C81.021606,179.272781 81.873856,177.164154 81.905869,175.429993 
	C82.096275,165.115021 82.098656,154.792847 81.903252,144.478058 
	C81.870514,142.750320 80.971855,140.658234 79.774864,139.397797 
	C73.934509,133.247833 67.950706,127.224075 61.791210,121.394943 
	C60.423336,120.100441 58.154072,119.145386 56.276566,119.104568 
	C46.129292,118.883926 35.971161,118.861046 25.825624,119.118530 
	C23.822809,119.169365 21.454237,120.307449 19.946945,121.695976 
	C13.490096,127.644035 7.292260,133.873276 0.999999,140.000000 
M183.500000,200.000000 
	C225.321457,200.000000 267.155823,199.415649 308.956909,200.338501 
	C322.359985,200.634384 331.951050,197.230911 340.885498,187.203033 
	C346.624542,180.761642 349.877594,175.007004 349.149170,166.374084 
	C348.423431,157.772903 351.278900,148.081848 348.197510,140.688660 
	C345.116638,133.296829 336.776855,127.998390 330.418335,122.133560 
	C328.604492,120.460526 325.665070,119.136047 323.237213,119.128517 
	C269.086365,118.960785 214.934860,118.990631 160.783478,119.009407 
	C151.968719,119.012459 142.148071,116.736267 134.621979,119.885719 
	C127.085983,123.039299 121.713486,131.549484 115.684853,137.985458 
	C114.205505,139.564758 113.174675,142.192230 113.117767,144.368683 
	C112.852196,154.525543 112.871780,164.696167 113.107887,174.854492 
	C113.155266,176.892776 114.094780,179.357330 115.470192,180.838684 
	C120.792694,186.571091 126.343590,192.108231 132.073074,197.434464 
	C133.561569,198.818192 135.997314,199.862152 138.014069,199.889893 
	C152.840408,200.093796 167.670853,200.000000 183.500000,200.000000 
M229.535126,87.000000 
	C257.679596,87.000000 285.837891,86.493576 313.961395,87.261734 
	C324.473663,87.548859 331.647003,84.435059 339.059540,77.036598 
	C346.484070,69.626213 350.358093,62.449593 349.171265,51.916000 
	C348.263092,43.855873 351.131317,34.695560 348.232483,27.724220 
	C345.334595,20.755157 337.233063,16.014606 331.668365,10.058235 
	C329.404327,7.634841 327.032166,6.929061 323.838959,6.939198 
	C292.197632,7.039636 260.554474,7.155710 228.915283,6.878760 
	C221.941544,6.817716 216.436218,7.437577 212.085022,14.067966 
	C208.339371,19.775625 200.843689,23.550964 198.551300,29.538092 
	C196.159241,35.785534 198.667847,43.733196 197.844238,50.798862 
	C196.622803,61.277386 199.306839,69.600227 208.139359,75.676064 
	C208.948257,76.232491 209.764267,76.959663 210.234192,77.799377 
	C214.276367,85.022736 220.119415,88.561729 229.535126,87.000000 
z"/>
<path fill="#001B66" opacity="1.000000" stroke="none" 
	d="
M0.999999,140.468658 
	C7.292260,133.873276 13.490096,127.644035 19.946945,121.695976 
	C21.454237,120.307449 23.822809,119.169365 25.825624,119.118530 
	C35.971161,118.861046 46.129292,118.883926 56.276566,119.104568 
	C58.154072,119.145386 60.423336,120.100441 61.791210,121.394943 
	C67.950706,127.224075 73.934509,133.247833 79.774864,139.397797 
	C80.971855,140.658234 81.870514,142.750320 81.903252,144.478058 
	C82.098656,154.792847 82.096275,165.115021 81.905869,175.429993 
	C81.873856,177.164154 81.021606,179.272781 79.831512,180.529556 
	C74.229431,186.445435 68.461533,192.213394 62.547432,197.817398 
	C61.289696,199.009171 59.184853,199.874680 57.452827,199.905365 
	C46.804813,200.094070 36.150082,200.095200 25.502155,199.904099 
	C23.773281,199.873077 21.671682,198.987442 20.417122,197.789932 
	C14.042276,191.704956 7.889648,185.387207 1.329596,179.075485 
	C1.000000,166.312439 1.000000,153.624878 0.999999,140.468658 
z"/>
<path fill="#001B66" opacity="1.000000" stroke="none" 
	d="
M676.531372,1.000011 
	C682.348999,7.389004 687.825745,13.678115 692.956055,20.238165 
	C694.217468,21.851120 694.886108,24.340866 694.912720,26.439131 
	C695.083496,39.932175 695.188293,53.433113 694.852966,66.919968 
	C694.779236,69.884117 693.450378,73.260132 691.644409,75.648697 
	C687.501038,81.128609 682.773132,86.177155 678.118225,91.250069 
	C677.251465,92.194641 675.621033,92.913795 674.335632,92.925598 
	C661.174744,93.046463 648.012207,93.030159 634.850708,92.948250 
	C633.657715,92.940826 632.054443,92.571533 631.344849,91.757423 
	C626.084290,85.722298 620.890381,79.619568 615.945251,73.326065 
	C614.772156,71.833061 614.104980,69.542778 614.082886,67.609200 
	C613.926941,53.949181 613.873657,40.284328 614.112793,26.626715 
	C614.157471,24.072479 615.052368,21.055182 616.613525,19.094503 
	C621.413635,13.066002 626.727295,7.446434 631.920654,1.333970 
	C646.687561,1.000000 661.375122,1.000000 676.531372,1.000011 
M661.751282,23.010988 
	C657.590637,23.007349 653.418335,22.823145 649.275208,23.091013 
	C647.669983,23.194799 645.813843,23.975077 644.630859,25.057838 
	C642.478210,27.028131 640.484131,29.288843 638.913574,31.741896 
	C637.583313,33.819592 636.299133,36.293957 636.129089,38.673817 
	C635.727051,44.303642 635.867859,49.986538 636.075623,55.637436 
	C636.143372,57.478687 636.599304,59.714352 637.732422,61.037636 
	C642.899658,67.071747 647.962097,73.636162 657.571777,71.033623 
	C658.502136,70.781670 659.630493,71.227562 660.541565,70.945152 
	C661.860046,70.536400 663.323425,70.019287 664.264099,69.084587 
	C666.342896,67.018982 668.060974,64.596016 670.058533,62.441559 
	C673.864563,58.336555 674.472290,36.496735 670.789368,32.285519 
	C668.091431,29.200565 665.324097,26.176199 661.751282,23.010988 
z"/>
<path fill="#001B66" opacity="1.000000" stroke="none" 
	d="
M760.531372,1.000005 
	C766.001953,6.843831 771.140198,12.579203 775.926025,18.595024 
	C777.435913,20.492981 778.824158,23.127026 778.866028,25.449451 
	C779.130249,40.106655 779.039978,54.771255 778.939453,69.432549 
	C778.929199,70.928909 778.469849,72.746094 777.547668,73.857468 
	C773.044739,79.284317 768.270813,84.485237 763.683960,89.844116 
	C761.735840,92.120193 759.621338,93.134689 756.440125,93.092995 
	C740.809875,92.888168 725.175476,93.000000 709.000000,93.000000 
	C709.000000,62.456989 709.000000,32.197151 709.000000,1.468657 
	C726.020874,1.000000 743.041809,1.000000 760.531372,1.000005 
M746.712097,70.990814 
	C753.251343,66.393196 758.384155,61.156189 757.088745,52.100670 
	C756.553223,48.357574 756.495483,44.391518 757.103577,40.671200 
	C758.424683,32.588131 752.391235,28.721964 748.162781,23.775635 
	C747.798523,23.349506 747.047546,23.047163 746.472229,23.040781 
	C741.391663,22.984430 736.310242,23.008083 731.251587,23.008083 
	C731.251587,39.285965 731.251587,54.981358 731.251587,70.999237 
	C736.279907,70.999237 741.063477,70.999237 746.712097,70.990814 
z"/>
<path fill="#001B66" opacity="1.000000" stroke="none" 
	d="
M798.468628,206.000000 
	C794.114319,202.254120 790.292053,198.439285 786.320435,194.786835 
	C783.716125,192.391724 781.358093,190.161118 781.917053,186.045212 
	C782.336548,182.956299 782.000000,179.764694 782.000000,176.310181 
	C789.260010,176.310181 796.325928,176.310181 803.816040,176.310181 
	C803.816040,179.278656 803.816040,182.357971 803.816040,185.989532 
	C812.320740,185.989532 820.451172,186.392059 828.488464,185.704529 
	C830.480469,185.534134 833.084229,182.092484 833.773682,179.686523 
	C834.688171,176.495773 833.999084,172.845490 833.999084,169.000000 
	C822.640991,169.000000 811.690430,169.179779 800.754395,168.861847 
	C798.304871,168.790634 795.606750,167.383163 793.551147,165.872406 
	C790.126770,163.355652 787.020508,160.366501 784.011353,157.346085 
	C782.983582,156.314499 782.232056,154.632111 782.088013,153.174545 
	C781.794617,150.206604 782.522400,147.078156 781.911987,144.211151 
	C778.838867,129.775574 787.905212,122.059647 797.848511,114.813263 
	C798.778259,114.135651 800.285889,114.038841 801.526794,114.033134 
	C813.514282,113.977943 825.503479,113.914818 837.488525,114.095100 
	C839.216797,114.121094 841.193298,115.086914 842.594177,116.198448 
	C846.940186,119.646927 851.064148,123.375275 855.637146,126.997513 
	C856.000000,132.022095 856.000000,137.044189 855.596985,142.393311 
	C848.185913,142.347687 841.177856,141.975037 834.176819,141.602768 
	C834.024841,139.332779 833.886047,137.260437 833.755005,135.302505 
	C823.976318,135.302505 814.580933,135.302505 805.000000,135.302505 
	C805.000000,137.084946 805.001770,138.565750 804.999756,140.046555 
	C804.988892,147.883911 807.062561,149.999374 814.759949,149.999893 
	C821.580322,150.000366 828.413818,150.256226 835.216553,149.909927 
	C839.752075,149.679047 843.002380,151.214157 846.074219,154.423279 
	C849.084229,157.567963 852.668030,160.163467 856.000000,163.000000 
	C856.000000,172.687561 856.000000,182.375122 855.638184,192.533813 
	C850.184265,197.336624 845.092163,201.668320 840.000000,206.000000 
	C826.312439,206.000000 812.624878,206.000000 798.468628,206.000000 
z"/>
<path fill="#001B66" opacity="1.000000" stroke="none" 
	d="
M428.468658,206.000000 
	C426.221161,203.723099 424.900574,200.661209 422.582520,199.308029 
	C413.541748,194.030380 411.110168,186.369553 413.583679,176.332306 
	C420.214203,176.332306 427.281738,176.332306 434.774384,176.332306 
	C434.774384,179.235626 434.774384,182.315857 434.774384,185.990372 
	C442.941589,185.990372 450.752625,186.503265 458.440186,185.752350 
	C461.782867,185.425842 465.561737,183.201630 465.051086,178.177536 
	C464.766724,175.379913 465.000000,172.529663 465.000000,169.000000 
	C457.494568,169.000000 450.078186,169.000000 442.661835,169.000000 
	C426.893402,169.000000 426.830109,169.063995 415.640228,157.997330 
	C414.211761,156.584610 413.209686,154.118622 413.117584,152.090286 
	C412.808228,145.276398 412.790253,138.429108 413.134827,131.618576 
	C413.231384,129.709763 414.834839,127.801025 415.990631,126.053314 
	C416.590332,125.146431 417.949768,124.750702 418.578125,123.852676 
	C424.608093,115.234810 432.780029,112.678810 443.055756,113.837471 
	C450.455750,114.671890 458.037476,114.252281 465.515106,113.901230 
	C469.705841,113.704498 472.710846,115.315010 475.501129,118.012497 
	C478.951904,121.348480 482.481171,124.605507 485.857147,128.014816 
	C486.517517,128.681732 486.913574,129.877930 486.949341,130.847778 
	C487.077850,134.332397 486.999756,137.824661 486.999756,141.656723 
	C479.812958,141.656723 472.745972,141.656723 465.218872,141.656723 
	C465.108765,139.781342 464.986969,137.706573 464.846527,135.314880 
	C455.128815,135.314880 445.387054,135.314880 435.276855,135.314880 
	C435.032471,139.825974 433.451080,144.738312 438.569397,147.960037 
	C440.112488,148.931335 441.994843,149.848907 443.751862,149.908783 
	C450.405579,150.135483 457.123779,150.515839 463.717743,149.848862 
	C469.801697,149.233444 473.827271,152.014526 478.124817,155.493744 
	C484.725616,160.837677 487.573212,166.937592 487.359314,175.889938 
	C487.131714,185.417725 486.763611,193.679108 477.567749,199.093918 
	C475.069061,200.565216 473.270752,203.225937 471.075500,205.670380 
	C456.979095,206.000000 442.958221,206.000000 428.468658,206.000000 
z"/>
<path fill="#001B66" opacity="1.000000" stroke="none" 
	d="
M856.000000,92.531418 
	C842.365784,93.000000 828.730591,93.080315 815.098572,92.907509 
	C813.201721,92.883469 810.776123,92.133034 809.527588,90.827370 
	C804.438171,85.505203 799.582214,79.941170 794.939026,74.223640 
	C793.735840,72.742058 793.103210,70.385345 793.082275,68.421272 
	C792.929443,54.123634 792.682129,39.811081 793.244263,25.533937 
	C793.370178,22.336285 796.304382,19.057785 798.429443,16.172831 
	C802.084351,11.211031 806.119507,6.529325 809.997559,1.365022 
	C825.233948,1.000000 840.467834,1.000000 856.000000,1.000000 
	C856.000000,8.018007 856.000000,15.040221 855.531372,22.531218 
	C847.585815,23.000000 840.046204,23.604517 832.649048,22.836414 
	C824.646423,22.005445 821.735046,27.711367 817.950500,32.502567 
	C817.140503,33.528023 817.268860,35.294701 816.905273,37.000000 
	C830.431213,37.000000 843.215576,37.000000 856.000000,37.000000 
	C856.000000,43.354397 856.000000,49.708797 855.531372,56.531597 
	C842.436340,57.000000 829.809998,57.000000 817.205994,57.000000 
	C816.885681,64.187401 823.314941,70.997162 830.028564,70.999321 
	C838.685730,71.002113 847.342834,71.000000 856.000000,71.000000 
	C856.000000,78.020950 856.000000,85.041893 856.000000,92.531418 
z"/>
<path fill="#001B66" opacity="1.000000" stroke="none" 
	d="
M726.468628,206.000000 
	C722.525940,201.358093 719.526062,196.237839 715.452820,192.200439 
	C710.803040,187.591660 708.510071,182.871735 708.854614,176.157867 
	C709.399963,165.531189 709.662231,154.800842 708.781128,144.219543 
	C708.128357,136.379959 711.392090,131.150528 716.346497,126.102089 
	C718.287598,124.124069 719.911804,121.839127 721.760498,119.765442 
	C724.981384,116.152611 728.220581,113.529465 733.895569,113.809601 
	C746.341553,114.423996 758.838806,114.000000 771.657349,114.000000 
	C771.657349,121.195549 771.657349,128.261444 771.657349,136.000000 
	C763.273926,136.000000 754.693542,135.998337 746.113220,136.000534 
	C739.602051,136.002182 732.953613,142.942383 733.156494,149.884369 
	C745.895325,149.884369 758.652893,149.884369 771.703125,149.884369 
	C771.703125,156.293137 771.703125,162.357574 771.703125,168.837494 
	C759.018066,168.837494 746.281067,168.837494 733.615356,168.837494 
	C732.380249,176.473083 737.843933,182.997040 745.069031,182.999344 
	C753.864441,183.002121 762.659912,183.000000 772.000000,183.000000 
	C772.000000,190.536377 772.000000,197.799545 772.000000,205.531357 
	C756.979126,206.000000 741.958191,206.000000 726.468628,206.000000 
z"/>
<path fill="#001B66" opacity="1.000000" stroke="none" 
	d="
M553.468567,206.000000 
	C559.992615,187.725174 566.999939,169.455948 573.972778,151.173538 
	C578.668030,138.862732 583.314636,126.533325 587.943787,114.315674 
	C588.730347,114.177498 589.209900,114.007553 589.683350,114.023140 
	C595.407715,114.211617 602.357544,112.528023 606.492188,115.197708 
	C610.243164,117.619698 610.998352,124.763664 612.952209,129.872513 
	C622.125732,153.858795 631.264465,177.858414 640.378723,201.867294 
	C640.772339,202.904190 640.801208,204.079605 641.000000,205.595245 
	C633.979065,206.000000 626.958069,206.000000 619.468384,205.602264 
	C617.343689,200.853882 615.868958,196.419922 613.927429,192.200745 
	C613.302673,190.842896 611.471985,189.176804 610.151855,189.140305 
	C600.675598,188.878464 591.188843,189.000259 581.691040,189.000259 
	C579.427124,194.752151 577.213562,200.376068 575.000000,206.000000 
	C567.979065,206.000000 560.958069,206.000000 553.468567,206.000000 
M597.290039,150.054092 
	C594.725708,155.848618 592.161316,161.643143 589.511841,167.629990 
	C595.197998,167.629990 600.029846,167.629990 605.212769,167.629990 
	C602.670044,161.612762 600.315125,156.039841 597.290039,150.054092 
z"/>
<path fill="#001B66" opacity="1.000000" stroke="none" 
	d="
M599.531372,1.000000 
	C600.000000,8.138408 600.000000,15.276816 600.000000,23.000000 
	C591.342590,23.000000 582.916077,22.999290 574.489502,23.000246 
	C568.721863,23.000900 561.069275,30.500593 561.017273,36.341984 
	C560.947571,44.168423 560.955994,51.996300 561.017639,59.822876 
	C561.051025,64.062256 568.199524,70.994278 572.411926,70.997742 
	C581.390686,71.005127 590.369385,71.000000 599.673706,71.000000 
	C599.673706,78.231384 599.673706,85.298164 599.673706,93.000000 
	C596.564453,93.000000 593.301575,93.000000 590.038757,93.000000 
	C580.046753,93.000000 570.051208,92.848907 560.064697,93.082344 
	C556.591309,93.163544 554.138550,92.149277 551.942749,89.522812 
	C547.421143,84.114380 542.622498,78.937111 538.119629,73.513824 
	C537.302185,72.529305 537.052490,70.827011 537.045837,69.453606 
	C536.972656,54.465973 536.971802,39.477715 537.047302,24.490107 
	C537.054199,23.120615 537.322632,21.408428 538.152832,20.442833 
	C543.611938,14.093518 549.258606,7.905516 554.921997,1.332440 
	C569.687561,1.000000 584.375122,1.000000 599.531372,1.000000 
z"/>
<path fill="#001B66" opacity="1.000000" stroke="none" 
	d="
M517.468628,206.000000 
	C517.000000,182.538025 517.000000,159.076065 517.000000,135.187958 
	C510.396271,135.187958 503.990204,135.187958 497.295837,135.187958 
	C497.295837,128.037903 497.295837,121.305153 497.295837,114.284607 
	C518.314941,114.284607 539.371338,114.284607 560.714478,114.284607 
	C560.714478,120.984444 560.714478,127.716507 560.714478,134.878387 
	C554.328369,134.878387 547.921448,134.878387 541.000000,134.878387 
	C541.000000,158.555069 541.000000,181.808868 541.000000,205.531342 
	C533.312439,206.000000 525.624817,206.000000 517.468628,206.000000 
z"/>
<path fill="#001B66" opacity="1.000000" stroke="none" 
	d="
M655.468628,206.000000 
	C655.000000,182.538040 655.000000,159.076065 655.000000,135.187943 
	C648.395264,135.187943 641.990906,135.187943 635.295837,135.187943 
	C635.295837,128.037857 635.295837,121.305122 635.295837,114.284607 
	C656.315002,114.284607 677.371399,114.284607 698.714539,114.284607 
	C698.714539,120.984451 698.714539,127.716507 698.714539,134.878387 
	C692.330383,134.878387 685.922241,134.878387 679.000000,134.878387 
	C679.000000,158.555054 679.000000,181.808868 679.000000,205.531342 
	C671.312439,206.000000 663.624817,206.000000 655.468628,206.000000 
z"/>
<path fill="#FFFFFF" opacity="1.000000" stroke="none" 
	d="
M856.000000,162.531586 
	C852.668030,160.163467 849.084229,157.567963 846.074219,154.423279 
	C843.002380,151.214157 839.752075,149.679047 835.216553,149.909927 
	C828.413818,150.256226 821.580322,150.000366 814.759949,149.999893 
	C807.062561,149.999374 804.988892,147.883911 804.999756,140.046555 
	C805.001770,138.565750 805.000000,137.084946 805.000000,135.302505 
	C814.580933,135.302505 823.976318,135.302505 833.755005,135.302505 
	C833.886047,137.260437 834.024841,139.332779 834.176819,141.602768 
	C841.177856,141.975037 848.185913,142.347687 855.596985,142.860168 
	C856.000000,149.354401 856.000000,155.708786 856.000000,162.531586 
z"/>
<path fill="#FFFFFF" opacity="1.000000" stroke="none" 
	d="
M575.468628,206.000000 
	C577.213562,200.376068 579.427124,194.752151 581.691040,189.000259 
	C591.188843,189.000259 600.675598,188.878464 610.151855,189.140305 
	C611.471985,189.176804 613.302673,190.842896 613.927429,192.200745 
	C615.868958,196.419922 617.343689,200.853882 618.999756,205.602264 
	C604.645752,206.000000 590.291565,206.000000 575.468628,206.000000 
z"/>
<path fill="#FFFFFF" opacity="1.000000" stroke="none" 
	d="
M856.000000,70.535355 
	C847.342834,71.000000 838.685730,71.002113 830.028564,70.999321 
	C823.314941,70.997162 816.885681,64.187401 817.205994,57.000000 
	C829.809998,57.000000 842.436340,57.000000 855.531372,57.000000 
	C856.000000,61.356899 856.000000,65.713799 856.000000,70.535355 
z"/>
<path fill="#FFFFFF" opacity="1.000000" stroke="none" 
	d="
M856.000000,36.535347 
	C843.215576,37.000000 830.431213,37.000000 816.905273,37.000000 
	C817.268860,35.294701 817.140503,33.528023 817.950500,32.502567 
	C821.735046,27.711367 824.646423,22.005445 832.649048,22.836414 
	C840.046204,23.604517 847.585815,23.000000 855.531372,23.000000 
	C856.000000,27.356899 856.000000,31.713799 856.000000,36.535347 
z"/>
<path fill="#FFFFFF" opacity="1.000000" stroke="none" 
	d="
M840.471191,206.000000 
	C845.092163,201.668320 850.184265,197.336624 855.638184,193.002472 
	C856.000000,197.266068 856.000000,201.532150 856.000000,206.000000 
	C850.981995,206.000000 845.962158,206.000000 840.471191,206.000000 
z"/>
<path fill="#001B66" opacity="1.000000" stroke="none" 
	d="
M183.000000,200.000000 
	C167.670853,200.000000 152.840408,200.093796 138.014069,199.889893 
	C135.997314,199.862152 133.561569,198.818192 132.073074,197.434464 
	C126.343590,192.108231 120.792694,186.571091 115.470192,180.838684 
	C114.094780,179.357330 113.155266,176.892776 113.107887,174.854492 
	C112.871780,164.696167 112.852196,154.525543 113.117767,144.368683 
	C113.174675,142.192230 114.205505,139.564758 115.684853,137.985458 
	C121.713486,131.549484 127.085983,123.039299 134.621979,119.885719 
	C142.148071,116.736267 151.968719,119.012459 160.783478,119.009407 
	C214.934860,118.990631 269.086365,118.960785 323.237213,119.128517 
	C325.665070,119.136047 328.604492,120.460526 330.418335,122.133560 
	C336.776855,127.998390 345.116638,133.296829 348.197510,140.688660 
	C351.278900,148.081848 348.423431,157.772903 349.149170,166.374084 
	C349.877594,175.007004 346.624542,180.761642 340.885498,187.203033 
	C331.951050,197.230911 322.359985,200.634384 308.956909,200.338501 
	C267.155823,199.415649 225.321457,200.000000 183.000000,200.000000 
z"/>
<path fill="#452CDD" opacity="1.000000" stroke="none" 
	d="
M229.043015,87.000000 
	C220.119415,88.561729 214.276367,85.022736 210.234192,77.799377 
	C209.764267,76.959663 208.948257,76.232491 208.139359,75.676064 
	C199.306839,69.600227 196.622803,61.277386 197.844238,50.798862 
	C198.667847,43.733196 196.159241,35.785534 198.551300,29.538092 
	C200.843689,23.550964 208.339371,19.775625 212.085022,14.067966 
	C216.436218,7.437577 221.941544,6.817716 228.915283,6.878760 
	C260.554474,7.155710 292.197632,7.039636 323.838959,6.939198 
	C327.032166,6.929061 329.404327,7.634841 331.668365,10.058235 
	C337.233063,16.014606 345.334595,20.755157 348.232483,27.724220 
	C351.131317,34.695560 348.263092,43.855873 349.171265,51.916000 
	C350.358093,62.449593 346.484070,69.626213 339.059540,77.036598 
	C331.647003,84.435059 324.473663,87.548859 313.961395,87.261734 
	C285.837891,86.493576 257.679596,87.000000 229.043015,87.000000 
z"/>
<path fill="#FFFFFF" opacity="1.000000" stroke="none" 
	d="
M662.169434,23.067915 
	C665.324097,26.176199 668.091431,29.200565 670.789368,32.285519 
	C674.472290,36.496735 673.864563,58.336555 670.058533,62.441559 
	C668.060974,64.596016 666.342896,67.018982 664.264099,69.084587 
	C663.323425,70.019287 661.860046,70.536400 660.541565,70.945152 
	C659.630493,71.227562 658.502136,70.781670 657.571777,71.033623 
	C647.962097,73.636162 642.899658,67.071747 637.732422,61.037636 
	C636.599304,59.714352 636.143372,57.478687 636.075623,55.637436 
	C635.867859,49.986538 635.727051,44.303642 636.129089,38.673817 
	C636.299133,36.293957 637.583313,33.819592 638.913574,31.741896 
	C640.484131,29.288843 642.478210,27.028131 644.630859,25.057838 
	C645.813843,23.975077 647.669983,23.194799 649.275208,23.091013 
	C653.418335,22.823145 657.590637,23.007349 662.169434,23.067915 
z"/>
<path fill="#FFFFFF" opacity="1.000000" stroke="none" 
	d="
M746.279541,70.995026 
	C741.063477,70.999237 736.279907,70.999237 731.251587,70.999237 
	C731.251587,54.981358 731.251587,39.285965 731.251587,23.008083 
	C736.310242,23.008083 741.391663,22.984430 746.472229,23.040781 
	C747.047546,23.047163 747.798523,23.349506 748.162781,23.775635 
	C752.391235,28.721964 758.424683,32.588131 757.103577,40.671200 
	C756.495483,44.391518 756.553223,48.357574 757.088745,52.100670 
	C758.384155,61.156189 753.251343,66.393196 746.279541,70.995026 
z"/>
<path fill="#FFFFFF" opacity="1.000000" stroke="none" 
	d="
M597.625122,150.260498 
	C600.315125,156.039841 602.670044,161.612762 605.212769,167.629990 
	C600.029846,167.629990 595.197998,167.629990 589.511841,167.629990 
	C592.161316,161.643143 594.725708,155.848618 597.625122,150.260498 
z"/>
</svg>